<?xml version="1.0" encoding="UTF-8"?>
<!DOCTYPE svg PUBLIC "-//W3C//DTD SVG 1.1//EN" "http://www.w3.org/Graphics/SVG/1.1/DTD/svg11.dtd">
<!-- Creator: CorelDRAW (OEM Version) -->
<svg xmlns="http://www.w3.org/2000/svg" xml:space="preserve" width="215.9mm" height="279.4mm" version="1.1" style="shape-rendering:geometricPrecision; text-rendering:geometricPrecision; image-rendering:optimizeQuality; fill-rule:evenodd; clip-rule:evenodd"
viewBox="0 0 21590 27940"
 xmlns:xlink="http://www.w3.org/1999/xlink"
 xmlns:xodm="http://www.corel.com/coreldraw/odm/2003"
 xmlns:sketch="http://www.bohemiancoding.com/sketch/ns">
 <defs>
  <style type="text/css">
   <![CDATA[
    .fil0 {fill:#6666FF}
   ]]>
  </style>
 </defs>
 <g id="Layer_x0020_1">
  <metadata id="CorelCorpID_0Corel-Layer"/>
  <g id="SVGRepo_bgCarrier">
  </g>
  <g id="SVGRepo_tracerCarrier">
  </g>
  <g id="SVGRepo_iconCarrier">
   <g id="Page-1" sketch:type="MSPage">
    <g id="Icon-Set" sketch:type="MSLayerGroup">
     <path id="compass" class="fil0" d="M10054.87 12877.09l2486.38 -2189.33 -653.34 3247.67 1222.02 705.55 928.51 -6546.14 -5205.59 4076.7 1222.02 705.55 0 0zm740.13 10265.13c-5066.59,0 -9172.22,-4105.63 -9172.22,-9172.22 0,-5065.89 4105.63,-9172.22 9172.22,-9172.22 5066.59,0 9172.22,4106.33 9172.22,9172.22 0,5066.59 -4105.63,9172.22 -9172.22,9172.22l0 0zm4.23 -19747.09c-5842.7,0 -10579.1,4737.1 -10579.1,10579.1 0,5842.71 4736.4,10579.1 10579.1,10579.1 5842.71,0 10579.1,-4736.39 10579.1,-10579.1 0,-5842 -4736.39,-10579.1 -10579.1,-10579.1l0 0zm701.33 10927.65c0,-584.2 -474.14,-1058.34 -1058.34,-1058.34 -584.2,0 -1058.33,474.14 -1058.33,1058.34 0,584.2 474.13,1058.33 1058.33,1058.33 584.2,0 1058.34,-474.13 1058.34,-1058.33l0 0zm-3157.37 3635.02l653.35 -3247.67 -1222.02 -705.56 -927.81 6546.15 5204.88 -4076.7 -1222.02 -705.56 -2486.38 2189.34 0 0z" sketch:type="MSShapeGroup"/>
    </g>
   </g>
  </g>
 </g>
</svg>
